PathFileType	4	(X/Y/Z)	s04c0203.trc
DataRate	CameraRate	NumFrames	NumMarkers	Units	OrigDataRate	OrigDataStartFrame	OrigNumFrames
200	200	4	50	mm	200	250	2000
Frame#	Time	racr			lacr			c7			jug			rlel			rdr			llel			ldr			s2			lic			ric			lasi			rasi			rpsi			lpsi			rgt			lgt			rth1			rth2			rth3			rth4			rlfc			rmfc			rsh1			rsh2			rsh3			rsh4			rlmal			rmmal			rcal			rtoe			rmt5			lth1			lth2			lth4			lth3			llfc			lmfc			lsh1			lsh2			lsh3			lsh4			llmal			lmmal			lcal			ltoe			lmt5			SBIKE			LBIKE			RBIKE			
		X1	Y1	Z1	X2	Y2	Z2	X3	Y3	Z3	X4	Y4	Z4	X5	Y5	Z5	X6	Y6	Z6	X7	Y7	Z7	X8	Y8	Z8	X9	Y9	Z9	X10	Y10	Z10	X11	Y11	Z11	X12	Y12	Z12	X13	Y13	Z13	X14	Y14	Z14	X15	Y15	Z15	X16	Y16	Z16	X17	Y17	Z17	X18	Y18	Z18	X19	Y19	Z19	X20	Y20	Z20	X21	Y21	Z21	X22	Y22	Z22	X23	Y23	Z23	X24	Y24	Z24	X25	Y25	Z25	X26	Y26	Z26	X27	Y27	Z27	X28	Y28	Z28	X29	Y29	Z29	X30	Y30	Z30	X31	Y31	Z31	X32	Y32	Z32	X33	Y33	Z33	X34	Y34	Z34	X35	Y35	Z35	X36	Y36	Z36	X37	Y37	Z37	X38	Y38	Z38	X39	Y39	Z39	X40	Y40	Z40	X41	Y41	Z41	X42	Y42	Z42	X43	Y43	Z43	X44	Y44	Z44	X45	Y45	Z45	X46	Y46	Z46	X47	Y47	Z47	X48	Y48	Z48	X49	Y49	Z49	X50	Y50	Z50	
250	1.2500	472.403336	1435.198920	-172.605597	492.206272	1405.053962	-447.741836	460.834418	1467.245478	-309.397972	465.484186	1315.804310	-301.221441	477.999236	1137.801574	-31.597110	689.724996	939.428786	-103.842847	462.957037	1123.022357	-562.882400	689.804174	939.271150	-503.001364	-88.033558	1178.355466	-298.768603	72.691528	1178.497535	-450.205584	75.615753	1181.802861	-137.422641	112.152781	1131.469623	-406.081723	112.600094	1126.098644	-181.634966	-54.114877	1219.231314	-254.989596	-58.074777	1225.507242	-330.818750	19.947808	1125.109226	-113.640749	33.884222	1097.111623	-482.631285	126.995707	1006.855573	-94.262398	199.878566	956.841966	-98.355229	240.493512	881.870523	-94.064500	224.760735	979.225653	-116.025932	311.987437	755.658783	-114.452265	294.057757	740.761409	-227.213286	216.812932	677.110460	-94.478741	164.733668	603.025963	-111.111063	84.653501	571.947028	-119.409125	187.689615	582.512063	-134.354814	-20.173901	461.761952	-134.151145	2.079212	462.936267	-219.170595	-99.160391	455.334088	-176.380186	178.704686	342.950414	-160.063656	106.746199	341.266100	-105.995179	93.979690	1028.243716	-486.004344	173.745701	994.227099	-486.443399	195.560977	1022.221657	-477.216249	227.131751	922.706093	-483.724608	338.070244	805.546936	-458.528263	373.072627	787.514991	-348.859947	331.874639	682.504019	-478.980577	340.468833	596.944018	-461.626713	305.256281	515.570987	-459.906213	369.185947	595.736835	-434.645841	279.118882	370.344701	-452.026374	278.155396	381.583735	-364.405893	200.224440	342.477689	-410.930058	502.563650	338.558542	-417.216292	432.773507	299.755504	-478.658756	-185.614677	929.312436	-286.752097	-17.407790	79.100012	-485.393933	-17.450646	79.277332	-84.728074	
251	1.2550	472.021732	1435.262536	-172.336932	491.665932	1405.395000	-447.476559	460.328492	1467.682349	-309.104405	465.979065	1316.076962	-300.819801	477.886457	1137.856943	-31.379676	689.744511	939.561392	-103.448233	463.026497	1123.290803	-562.724692	689.700632	939.221949	-502.536360	-87.953475	1177.650692	-299.409373	72.714099	1178.138103	-450.338914	75.124385	1181.791300	-137.567454	112.302018	1131.200209	-406.238815	112.936578	1126.496943	-181.166044	-54.363926	1218.667753	-255.521401	-58.128451	1224.838517	-331.346047	19.586599	1124.927047	-113.957977	34.003430	1096.589207	-482.876787	126.868733	1006.758131	-94.527411	199.857428	956.858248	-98.531470	240.583035	881.969084	-94.245049	224.727364	979.368347	-116.026412	312.426969	755.973614	-114.677269	294.475090	740.921805	-227.384163	216.994924	677.715674	-94.663930	164.653814	603.686580	-111.283695	84.479494	573.045893	-119.552948	187.541341	583.203653	-134.442355	-20.803643	463.247153	-134.413764	1.480273	464.507746	-219.395915	-99.823618	456.506522	-176.377176	178.606776	346.110957	-160.188864	106.788695	343.871036	-105.957022	94.109326	1027.849013	-486.367594	173.872892	993.734619	-486.709805	195.708929	1021.570990	-477.218641	227.202852	922.231231	-483.964937	337.899926	804.776013	-458.799295	373.036464	786.602095	-349.214298	331.653729	681.688693	-479.258581	340.422827	596.030112	-461.859180	305.314866	514.569858	-460.032951	369.124798	594.876772	-434.905234	279.736414	369.444871	-452.002485	278.807552	380.510198	-364.411951	200.560001	342.155233	-410.856877	502.954576	335.495108	-417.176211	432.759163	297.367372	-478.624907	-185.651445	929.294125	-286.770566	-17.401959	79.083853	-485.393370	-17.448181	79.282395	-84.704115	
252	1.2600	471.709024	1435.306189	-172.064047	491.170516	1405.793230	-447.215611	459.820873	1467.873005	-308.893724	464.677740	1316.287688	-301.001723	477.645769	1137.901264	-31.102433	689.712459	939.703778	-103.034029	463.082884	1123.536529	-562.521968	689.560984	939.171653	-501.969618	-87.904753	1177.025883	-299.837468	72.767357	1177.792034	-450.477194	74.684060	1181.784741	-137.666330	112.403312	1130.832018	-406.314606	112.115205	1126.207902	-181.800483	-54.578238	1218.216215	-255.945464	-58.207991	1224.304096	-331.797514	19.257233	1124.697425	-114.198289	34.114498	1096.095501	-483.074433	126.738077	1006.577250	-94.728183	199.811395	956.789939	-98.619851	240.637537	881.950460	-94.457715	224.727091	979.370141	-115.987688	312.864234	756.169509	-114.882175	294.843257	741.143109	-227.610760	217.217083	678.269421	-94.923953	164.626135	604.480796	-111.479894	84.371004	574.026049	-119.737921	187.428727	583.912249	-134.734379	-21.324383	464.846142	-134.817773	0.934461	466.062997	-219.634527	-100.395470	457.659446	-176.596110	178.542208	348.722216	-160.290902	106.767909	346.148809	-106.042175	94.259936	1027.456695	-486.707550	174.055412	993.388012	-487.082229	195.885520	1021.169507	-477.614622	227.333632	921.835940	-484.271207	337.866210	804.007753	-459.136581	373.120051	785.959914	-349.594573	331.566382	680.883486	-479.528256	340.426585	595.258250	-462.099715	305.419631	513.816713	-460.275097	369.211483	594.144548	-435.199128	280.398468	368.483735	-452.024428	279.329569	379.675345	-364.443046	200.885065	341.910023	-410.808595	503.291001	333.007070	-417.268444	432.762983	295.190478	-478.572952	-185.694911	929.292547	-286.825212	-17.419951	79.087191	-485.399392	-17.462310	79.285595	-84.706744	
253	1.2650	471.450768	1435.328681	-171.794320	490.713140	1406.104406	-446.983751	459.278187	1468.152479	-308.723621	464.339279	1316.486947	-300.878874	477.373756	1137.953818	-30.811836	689.620233	939.797808	-102.680997	463.113486	1123.765006	-562.285225	689.374042	939.150684	-501.285429	-88.007273	1176.518504	-299.989091	72.877398	1177.392912	-450.685559	74.258260	1181.799598	-137.696710	112.494966	1130.497206	-406.367870	111.908721	1126.244844	-181.794726	-54.864715	1217.838236	-256.373279	-58.189519	1223.653961	-332.358981	18.899510	1124.423674	-114.452400	34.247322	1095.596986	-483.303367	126.629961	1006.346056	-94.875140	199.774863	956.667343	-98.498187	240.732361	881.859758	-94.693078	224.734052	979.337172	-115.919312	313.334285	756.343053	-115.120260	295.272098	741.358318	-227.781355	217.503803	678.778181	-95.216508	164.665844	605.183163	-111.772209	84.291617	575.023560	-120.027299	187.429436	584.511836	-135.031055	-21.808893	466.259321	-135.059668	0.610585	467.430645	-219.894786	-100.779969	458.647753	-176.831545	178.479991	350.748052	-160.340233	106.730055	347.873618	-106.112315	94.471796	1027.123499	-487.062811	174.252319	993.036569	-487.478856	196.094367	1020.991282	-478.287775	227.545795	921.476585	-484.675350	337.858275	803.456781	-459.625706	373.269963	785.161072	-350.148750	331.578389	680.148759	-479.914343	340.527562	594.617844	-462.387365	305.655994	513.017175	-460.453148	369.323468	593.517139	-435.546933	281.087016	367.598972	-451.971212	279.762730	378.835312	-364.487293	201.146195	341.598125	-410.776950	503.567274	331.178216	-417.438792	432.773427	293.594204	-478.542285	-185.700354	929.291608	-286.845376	-17.411098	79.087015	-485.394794	-17.469201	79.279710	-84.704121	
